<svg xmlns="http://www.w3.org/2000/svg" viewBox="229.0 20.0 193.6 193.57" fill="none"><defs><linearGradient id="paint1_linear_39_9111" x1="305.649" y1="116.78" x2="344.239" y2="116.78" gradientUnits="userSpaceOnUse">
<stop offset="0.15" stop-color="#00AAFF" />
<stop offset="0.5" stop-color="#4D4DFF" />
<stop offset="0.85" stop-color="#00AAFF" />
</linearGradient>
</defs><path d="M305.649 201.8V31.7599L324.919 20.6599L344.239 31.7999V201.8L324.919 212.92L305.649 201.8Z" fill="url(#paint1_linear_39_9111)" />
<path d="M324.92 21.3L343.68 32.12V201.47L324.92 212.27L306.21 201.47V32.1L324.92 21.3ZM324.92 20L324.36 20.32L305.65 31.12L305.09 31.45V202.11L305.65 202.44L324.36 213.24L324.92 213.57L325.48 213.24L344.24 202.44L344.8 202.11V31.48L344.24 31.15L325.48 20.32L324.92 20Z" fill="black" />
<path d="M324.92 25.18L340.32 34.06V199.52L324.92 208.39L309.57 199.53V34.04L324.92 25.18ZM324.92 21.29L306.21 32.1V201.47L324.92 212.27L343.68 201.47V32.12L324.92 21.3V21.29Z" fill="#0000B2" />
</svg>