<svg xmlns="http://www.w3.org/2000/svg" viewBox="438.0 20.0 193.6 193.57" fill="none"><defs><linearGradient id="paint2_linear_39_9111" x1="514.649" y1="116.78" x2="553.239" y2="116.78" gradientUnits="userSpaceOnUse">
<stop offset="0.15" stop-color="#E07D65" />
<stop offset="0.5" stop-color="#93320F" />
<stop offset="0.85" stop-color="#E07D65" />
</linearGradient>
</defs><path d="M514.649 201.8V31.7599L533.919 20.6599L553.239 31.7999V201.8L533.919 212.92L514.649 201.8Z" fill="url(#paint2_linear_39_9111)" />
<path d="M533.92 21.3L552.68 32.12V201.47L533.92 212.27L515.21 201.47V32.1L533.92 21.3ZM533.92 20L533.36 20.32L514.65 31.12L514.09 31.45V202.11L514.65 202.44L533.36 213.24L533.92 213.57L534.48 213.24L553.24 202.44L553.8 202.11V31.48L553.24 31.15L534.48 20.32L533.92 20Z" fill="black" />
<path d="M533.92 25.18L549.32 34.06V199.52L533.92 208.39L518.57 199.53V34.04L533.92 25.18ZM533.92 21.29L515.21 32.1V201.47L533.92 212.27L552.68 201.47V32.12L533.92 21.3V21.29Z" fill="#482402" />
</svg>