<svg xmlns="http://www.w3.org/2000/svg" viewBox="416.8 37.4 102.2 106.8" fill="none"><defs><linearGradient id="paint10_linear_39_3859" x1="465.19" y1="94.1701" x2="430.43" y2="74.1001" gradientUnits="userSpaceOnUse">
<stop offset="0.11" stop-color="#FFFF00" />
<stop offset="0.26" stop-color="#FFFB00" />
<stop offset="0.42" stop-color="#FFEE00" />
<stop offset="0.59" stop-color="#FFD800" />
<stop offset="0.75" stop-color="#FFBA00" />
<stop offset="0.92" stop-color="#FF9400" />
<stop offset="1" stop-color="#FF8000" />
</linearGradient>
<linearGradient id="paint11_linear_39_3859" x1="505.73" y1="74.1001" x2="470.97" y2="94.1701" gradientUnits="userSpaceOnUse">
<stop offset="0.07" stop-color="#FF8000" />
<stop offset="0.1" stop-color="#FF8700" />
<stop offset="0.26" stop-color="#FFAD00" />
<stop offset="0.43" stop-color="#FFCB00" />
<stop offset="0.59" stop-color="#FFE100" />
<stop offset="0.74" stop-color="#FFEE00" />
<stop offset="0.89" stop-color="#FFF200" />
</linearGradient>
<linearGradient id="paint9_linear_39_3859" x1="468.07" y1="92.0901" x2="468.07" y2="137.44" gradientUnits="userSpaceOnUse">
<stop offset="0.11" stop-color="#FFFF00" />
<stop offset="0.26" stop-color="#FFFB00" />
<stop offset="0.42" stop-color="#FFEE00" />
<stop offset="0.59" stop-color="#FFD800" />
<stop offset="0.75" stop-color="#FFBA00" />
<stop offset="0.92" stop-color="#FF9400" />
<stop offset="1" stop-color="#FF8000" />
</linearGradient>
</defs><path d="M469.65 45.3501C469.9 45.3501 502.63 72.3901 502.63 72.3901C502.87 72.5901 503.03 72.8701 503.09 73.1801L510.89 120.28C511.07 121.18 510.8 121.88 510.26 121.88C510.06 121.88 509.83 121.79 509.57 121.58L504.23 117.31L502.45 120.38L493.24 136.17H442.6L433.4 121.23L431.16 117.68L426.27 121.58C426.01 121.79 425.77 121.88 425.58 121.88C425.04 121.88 424.78 121.18 424.95 120.28L432.75 73.1801C432.81 72.8701 432.98 72.5801 433.22 72.3801C433.22 72.3801 465.95 45.3501 466.2 45.3501H469.65ZM466.19 40.3501C464.39 40.3501 463.56 41.0201 461.57 42.6201C456.514 46.7421 451.468 50.8755 446.43 55.0201C438.22 61.7701 430.03 68.5301 430.03 68.5301C428.859 69.5013 428.075 70.8602 427.82 72.3601L420.02 119.42C419.823 120.365 419.834 121.341 420.053 122.281C420.273 123.22 420.695 124.101 421.29 124.86C421.812 125.496 422.468 126.008 423.212 126.359C423.955 126.71 424.768 126.891 425.59 126.89C426.54 126.89 427.98 126.64 429.43 125.46L429.9 125.08L438.35 138.78C438.797 139.51 439.423 140.112 440.168 140.531C440.914 140.949 441.755 141.169 442.61 141.17H493.24C494.115 141.169 494.975 140.939 495.733 140.502C496.491 140.065 497.121 139.437 497.56 138.68L505.63 124.83L506.45 125.49C507.519 126.385 508.866 126.88 510.26 126.89C511.93 126.89 513.49 126.15 514.56 124.86C515.154 124.1 515.574 123.219 515.792 122.279C516.009 121.34 516.019 120.364 515.82 119.42L508.02 72.3601C508.02 72.3201 508.02 72.2801 508 72.2401C507.724 70.7913 506.954 69.4834 505.82 68.5401L489.4 55.0101C485.29 51.6301 481.17 48.2401 478.06 45.7101C471.53 40.3801 471.53 40.3801 469.7 40.3501H466.2H466.19Z" fill="black" />
<path d="M441.92 137.44L431.57 120.64L468.07 92.0901L504.57 119.76L494.26 137.44H441.92Z" fill="url(#paint9_linear_39_3859)" />
<path d="M468.08 93.9802L502.6 120.15L493.4 135.93H442.75L433.56 121L468.08 93.9802ZM468.05 90.2002L466.23 91.6202L431.7 118.63L429.58 120.29L431 122.57L440.2 137.51L441.09 138.93H495.12L495.99 137.45L505.19 121.65L506.53 119.36L504.41 117.76L469.9 91.5902L468.06 90.1902L468.05 90.2002Z" fill="#B25900" />
<path d="M425.74 123.16C425.11 123.16 424.54 122.89 424.14 122.4C423.61 121.76 423.44 120.83 423.64 119.77L431.43 72.7001C431.56 72.0101 431.91 71.4201 432.43 71.0001C465.56 43.6201 465.59 43.6201 466.35 43.6201H467.85V88.8001C467.85 89.6601 467.47 90.4701 466.8 91.0001L427.37 122.53C426.85 122.95 426.3 123.17 425.74 123.17V123.16Z" fill="url(#paint10_linear_39_3859)" />
<path d="M466.35 45.1201V88.8001C466.35 89.2001 466.17 89.5901 465.85 89.8401L426.44 121.35C426.18 121.56 425.94 121.65 425.74 121.65C425.21 121.65 424.94 120.95 425.12 120.05L432.92 72.9501C432.98 72.6401 433.14 72.3601 433.38 72.1601C433.38 72.1601 466.11 45.1201 466.36 45.1201M466.36 42.1201H466.35C465.2 42.1201 465.2 42.1201 459.21 47.0201L447.87 56.3201L431.47 69.8501C430.691 70.4937 430.161 71.3882 429.97 72.3801V72.4201L429.96 72.4601L422.16 119.53C422.008 120.191 422.004 120.877 422.149 121.54C422.295 122.202 422.585 122.824 423 123.36C423.68 124.19 424.68 124.66 425.75 124.66C426.38 124.66 427.34 124.49 428.34 123.68L467.74 92.1801C468.247 91.773 468.656 91.2569 468.937 90.67C469.217 90.0831 469.362 89.4406 469.36 88.7901V42.1201H466.36Z" fill="#B25900" />
<path d="M510.42 123.16C509.86 123.16 509.3 122.94 508.78 122.51L469.36 91.0101C469.027 90.7437 468.76 90.4057 468.576 90.0213C468.392 89.6369 468.298 89.2161 468.3 88.7901V43.6301H469.82C470.56 43.6301 470.96 43.9301 503.74 71.0001C504.25 71.4301 504.6 72.0201 504.72 72.6701L512.52 119.81C512.634 120.254 512.648 120.717 512.561 121.166C512.475 121.616 512.29 122.041 512.02 122.41C511.61 122.89 511.04 123.16 510.42 123.16Z" fill="url(#paint11_linear_39_3859)" />
<path d="M469.8 45.1201C470.05 45.1201 502.78 72.1601 502.78 72.1601C503.02 72.3601 503.18 72.6401 503.25 72.9501L511.05 120.05C511.22 120.95 510.95 121.65 510.42 121.65C510.22 121.65 509.99 121.56 509.72 121.35L470.3 89.8301C469.98 89.5801 469.8 89.1901 469.8 88.7901V45.1201ZM469.8 42.1201H466.8V88.8001C466.8 90.1201 467.39 91.3501 468.41 92.1801L507.85 123.7C508.83 124.5 509.79 124.67 510.42 124.67C511.48 124.67 512.48 124.19 513.17 123.37C513.98 122.38 514.27 121.03 514 119.54L506.2 72.4701V72.4101C506 71.4101 505.48 70.5101 504.7 69.8601L488.3 56.3301L476.96 47.0301C470.96 42.1301 470.96 42.1301 469.8 42.1301V42.1201Z" fill="#B25900" />
<path d="M473.77 139.18H462.4L461.43 127.38C461.427 126.269 461.731 125.179 462.308 124.23C462.885 123.281 463.713 122.509 464.7 122C465.689 121.496 466.781 121.227 467.891 121.215C469.002 121.203 470.1 121.447 471.1 121.93L471.33 122.03C473.42 123.04 474.73 125.16 474.73 127.47L473.77 139.18Z" fill="black" />
</svg>